<?xml version="1.0" encoding="UTF-8" standalone="no"?>
<!DOCTYPE svg PUBLIC "-//W3C//DTD SVG 1.1//EN"
 "http://www.w3.org/Graphics/SVG/1.1/DTD/svg11.dtd">
<!-- Generated by graphviz version 2.38.0 (20140413.2041)
 -->
<!-- Title: jdk.management Pages: 1 -->
<svg width="146pt" height="217pt"
 viewBox="0.00 0.00 146.00 217.00" xmlns="http://www.w3.org/2000/svg" xmlns:xlink="http://www.w3.org/1999/xlink">
<g id="graph0" class="graph" transform="scale(1 1) rotate(0) translate(4 213)">
<title>jdk.management</title>
<polygon fill="white" stroke="none" points="-4,4 -4,-213 142,-213 142,4 -4,4"/>
<!-- java.management -->
<g id="node1" class="node"><title>java.management</title>
<text text-anchor="middle" x="69" y="-101.4" font-family="DejaVuSans" font-size="12.00" fill="#e76f00">java.management</text>
</g>
<!-- java.base -->
<g id="node2" class="node"><title>java.base</title>
<text text-anchor="middle" x="69" y="-17.4" font-family="DejaVuSans" font-size="12.00" fill="#e76f00">java.base</text>
</g>
<!-- java.management&#45;&gt;java.base -->
<g id="edge1" class="edge"><title>java.management&#45;&gt;java.base</title>
<path fill="none" stroke="#999999" stroke-width="2" d="M69,-83.6501C69,-73.9808 69,-62.1502 69,-51.4157"/>
<polygon fill="#999999" stroke="#999999" stroke-width="2" points="69,-41.1671 73.5001,-51.1671 69.5,-46.1671 69.5001,-51.1671 69.0001,-51.1671 68.5001,-51.1671 68.5,-46.1671 64.5001,-51.1672 69,-41.1671 69,-41.1671"/>
</g>
<!-- jdk.management -->
<g id="node3" class="node"><title>jdk.management</title>
<text text-anchor="middle" x="69" y="-185.4" font-family="DejaVuSans" font-size="12.00" fill="#437291">jdk.management</text>
</g>
<!-- jdk.management&#45;&gt;java.management -->
<g id="edge2" class="edge"><title>jdk.management&#45;&gt;java.management</title>
<path fill="none" stroke="#999999" stroke-width="2" d="M69,-167.65C69,-157.981 69,-146.15 69,-135.416"/>
<polygon fill="#999999" stroke="#999999" stroke-width="2" points="69,-125.167 73.5001,-135.167 69.5,-130.167 69.5001,-135.167 69.0001,-135.167 68.5001,-135.167 68.5,-130.167 64.5001,-135.167 69,-125.167 69,-125.167"/>
</g>
</g>
</svg>
