<?xml version="1.0" encoding="UTF-8" standalone="no"?>
<!DOCTYPE svg PUBLIC "-//W3C//DTD SVG 1.1//EN"
 "http://www.w3.org/Graphics/SVG/1.1/DTD/svg11.dtd">
<!-- Generated by graphviz version 2.38.0 (20140413.2041)
 -->
<!-- Title: java.management.rmi Pages: 1 -->
<svg width="260pt" height="217pt"
 viewBox="0.00 0.00 259.50 217.00" xmlns="http://www.w3.org/2000/svg" xmlns:xlink="http://www.w3.org/1999/xlink">
<g id="graph0" class="graph" transform="scale(1 1) rotate(0) translate(4 213)">
<title>java.management.rmi</title>
<polygon fill="white" stroke="none" points="-4,4 -4,-213 255.5,-213 255.5,4 -4,4"/>
<!-- java.management -->
<g id="node1" class="node"><title>java.management</title>
<text text-anchor="middle" x="69" y="-101.4" font-family="DejaVuSans" font-size="12.00" fill="#e76f00">java.management</text>
</g>
<!-- java.base -->
<g id="node2" class="node"><title>java.base</title>
<text text-anchor="middle" x="141" y="-17.4" font-family="DejaVuSans" font-size="12.00" fill="#e76f00">java.base</text>
</g>
<!-- java.management&#45;&gt;java.base -->
<g id="edge1" class="edge"><title>java.management&#45;&gt;java.base</title>
<path fill="none" stroke="#999999" stroke-width="2" d="M86.4292,-83.6501C95.6268,-73.175 107.052,-60.1634 117.067,-48.7567"/>
<polygon fill="#999999" stroke="#999999" stroke-width="2" points="123.731,-41.1671 120.515,-51.6507 120.808,-45.2542 117.509,-49.0114 117.133,-48.6815 116.758,-48.3516 120.057,-44.5944 113.752,-45.7124 123.731,-41.1671 123.731,-41.1671"/>
</g>
<!-- java.management.rmi -->
<g id="node3" class="node"><title>java.management.rmi</title>
<text text-anchor="middle" x="141" y="-185.4" font-family="DejaVuSans" font-size="12.00" fill="#e76f00">java.management.rmi</text>
</g>
<!-- java.management.rmi&#45;&gt;java.management -->
<g id="edge3" class="edge"><title>java.management.rmi&#45;&gt;java.management</title>
<path fill="none" stroke="#999999" stroke-width="2" d="M123.571,-167.65C114.373,-157.175 102.948,-144.163 92.9328,-132.757"/>
<polygon fill="#999999" stroke="#999999" stroke-width="2" points="86.2687,-125.167 96.2482,-129.712 89.9434,-128.594 93.2425,-132.352 92.8667,-132.682 92.491,-133.011 89.192,-129.254 89.4852,-135.651 86.2687,-125.167 86.2687,-125.167"/>
</g>
<!-- java.rmi -->
<g id="node4" class="node"><title>java.rmi</title>
<text text-anchor="middle" x="213" y="-101.4" font-family="DejaVuSans" font-size="12.00" fill="#e76f00">java.rmi</text>
</g>
<!-- java.management.rmi&#45;&gt;java.rmi -->
<g id="edge2" class="edge"><title>java.management.rmi&#45;&gt;java.rmi</title>
<path fill="none" stroke="#999999" stroke-width="2" d="M158.429,-167.65C167.627,-157.175 179.052,-144.163 189.067,-132.757"/>
<polygon fill="#999999" stroke="#999999" stroke-width="2" points="195.731,-125.167 192.515,-135.651 192.808,-129.254 189.509,-133.011 189.133,-132.682 188.758,-132.352 192.057,-128.594 185.752,-129.712 195.731,-125.167 195.731,-125.167"/>
</g>
<!-- java.rmi&#45;&gt;java.base -->
<g id="edge4" class="edge"><title>java.rmi&#45;&gt;java.base</title>
<path fill="none" stroke="#999999" stroke-width="2" d="M195.571,-83.6501C186.373,-73.175 174.948,-60.1634 164.933,-48.7567"/>
<polygon fill="#999999" stroke="#999999" stroke-width="2" points="158.269,-41.1671 168.248,-45.7124 161.943,-44.5944 165.242,-48.3516 164.867,-48.6815 164.491,-49.0114 161.192,-45.2542 161.485,-51.6507 158.269,-41.1671 158.269,-41.1671"/>
</g>
</g>
</svg>
