<?xml version="1.0" encoding="UTF-8" standalone="no"?>
<!DOCTYPE svg PUBLIC "-//W3C//DTD SVG 1.1//EN"
 "http://www.w3.org/Graphics/SVG/1.1/DTD/svg11.dtd">
<!-- Generated by graphviz version 2.38.0 (20140413.2041)
 -->
<!-- Title: jdk.jconsole Pages: 1 -->
<svg width="383pt" height="301pt"
 viewBox="0.00 0.00 383.00 301.00" xmlns="http://www.w3.org/2000/svg" xmlns:xlink="http://www.w3.org/1999/xlink">
<g id="graph0" class="graph" transform="scale(1 1) rotate(0) translate(4 297)">
<title>jdk.jconsole</title>
<polygon fill="white" stroke="none" points="-4,4 -4,-297 379,-297 379,4 -4,4"/>
<!-- java.xml -->
<g id="node1" class="node"><title>java.xml</title>
<text text-anchor="middle" x="43" y="-101.4" font-family="DejaVuSans" font-size="12.00" fill="#e76f00">java.xml</text>
</g>
<!-- java.base -->
<g id="node4" class="node"><title>java.base</title>
<text text-anchor="middle" x="43" y="-17.4" font-family="DejaVuSans" font-size="12.00" fill="#e76f00">java.base</text>
</g>
<!-- java.xml&#45;&gt;java.base -->
<g id="edge5" class="edge"><title>java.xml&#45;&gt;java.base</title>
<path fill="none" stroke="#999999" stroke-width="2" d="M43,-83.6501C43,-73.9808 43,-62.1502 43,-51.4157"/>
<polygon fill="#999999" stroke="#999999" stroke-width="2" points="43,-41.1671 47.5001,-51.1671 43.5,-46.1671 43.5001,-51.1671 43.0001,-51.1671 42.5001,-51.1671 42.5,-46.1671 38.5001,-51.1672 43,-41.1671 43,-41.1671"/>
</g>
<!-- java.desktop -->
<g id="node2" class="node"><title>java.desktop</title>
<text text-anchor="middle" x="149" y="-185.4" font-family="DejaVuSans" font-size="12.00" fill="#e76f00">java.desktop</text>
</g>
<!-- java.desktop&#45;&gt;java.xml -->
<g id="edge2" class="edge"><title>java.desktop&#45;&gt;java.xml</title>
<path fill="none" stroke="#999999" stroke-width="2" d="M123.61,-167.859C109.554,-156.985 91.9025,-143.33 76.7032,-131.572"/>
<polygon fill="#999999" stroke="#999999" stroke-width="2" points="68.5498,-125.265 79.2129,-127.824 72.8106,-127.929 76.7654,-130.988 76.4594,-131.384 76.1535,-131.779 72.1987,-128.72 73.706,-134.943 68.5498,-125.265 68.5498,-125.265"/>
</g>
<!-- java.datatransfer -->
<g id="node5" class="node"><title>java.datatransfer</title>
<text text-anchor="middle" x="185" y="-101.4" font-family="DejaVuSans" font-size="12.00" fill="#e76f00">java.datatransfer</text>
</g>
<!-- java.desktop&#45;&gt;java.datatransfer -->
<g id="edge3" class="edge"><title>java.desktop&#45;&gt;java.datatransfer</title>
<path fill="none" stroke="#999999" stroke-width="2" d="M157.715,-167.65C162.092,-157.679 167.479,-145.409 172.307,-134.413"/>
<polygon fill="#999999" stroke="#999999" stroke-width="2" points="176.366,-125.167 176.466,-136.133 174.813,-129.946 172.804,-134.525 172.346,-134.324 171.888,-134.123 173.898,-129.544 168.225,-132.515 176.366,-125.167 176.366,-125.167"/>
</g>
<!-- java.management -->
<g id="node3" class="node"><title>java.management</title>
<text text-anchor="middle" x="306" y="-185.4" font-family="DejaVuSans" font-size="12.00" fill="#e76f00">java.management</text>
</g>
<!-- java.management&#45;&gt;java.base -->
<g id="edge4" class="edge"><title>java.management&#45;&gt;java.base</title>
<path fill="none" stroke="#999999" stroke-width="2" d="M304.325,-167.782C301.284,-144.476 292.766,-106.08 269,-84 221.846,-40.1915 146.732,-26.656 96.1813,-22.7101"/>
<polygon fill="#999999" stroke="#999999" stroke-width="2" points="86.1003,-22.0243 96.3827,-18.2134 91.1227,-21.8648 96.1112,-22.2042 96.0772,-22.7031 96.0433,-23.2019 91.0548,-22.8625 95.7718,-27.1927 86.1003,-22.0243 86.1003,-22.0243"/>
</g>
<!-- java.datatransfer&#45;&gt;java.base -->
<g id="edge1" class="edge"><title>java.datatransfer&#45;&gt;java.base</title>
<path fill="none" stroke="#999999" stroke-width="2" d="M150.987,-83.859C131.46,-72.5823 106.753,-58.3149 85.9011,-46.2739"/>
<polygon fill="#999999" stroke="#999999" stroke-width="2" points="77.2272,-41.265 88.1374,-42.3688 81.8071,-43.3324 86.137,-45.8328 85.887,-46.2658 85.637,-46.6988 81.307,-44.1984 83.6366,-50.1627 77.2272,-41.265 77.2272,-41.265"/>
</g>
<!-- jdk.jconsole -->
<g id="node6" class="node"><title>jdk.jconsole</title>
<text text-anchor="middle" x="227" y="-269.4" font-family="DejaVuSans" font-size="12.00" fill="#437291">jdk.jconsole</text>
</g>
<!-- jdk.jconsole&#45;&gt;java.desktop -->
<g id="edge6" class="edge"><title>jdk.jconsole&#45;&gt;java.desktop</title>
<path fill="none" stroke="#999999" stroke-width="2" d="M208.118,-251.65C198.058,-241.074 185.539,-227.913 174.615,-216.428"/>
<polygon fill="#999999" stroke="#999999" stroke-width="2" points="167.708,-209.167 177.86,-213.311 171.516,-212.445 174.962,-216.068 174.6,-216.413 174.238,-216.757 170.792,-213.135 171.339,-219.514 167.708,-209.167 167.708,-209.167"/>
</g>
<!-- jdk.jconsole&#45;&gt;java.management -->
<g id="edge7" class="edge"><title>jdk.jconsole&#45;&gt;java.management</title>
<path fill="none" stroke="#999999" stroke-width="2" d="M246.124,-251.65C256.313,-241.074 268.992,-227.913 280.057,-216.428"/>
<polygon fill="#999999" stroke="#999999" stroke-width="2" points="287.052,-209.167 283.355,-219.491 283.943,-213.115 280.474,-216.716 280.114,-216.369 279.754,-216.022 283.223,-212.421 276.874,-213.247 287.052,-209.167 287.052,-209.167"/>
</g>
</g>
</svg>
