<?xml version="1.0" encoding="UTF-8" standalone="no"?>
<!DOCTYPE svg PUBLIC "-//W3C//DTD SVG 1.1//EN"
 "http://www.w3.org/Graphics/SVG/1.1/DTD/svg11.dtd">
<!-- Generated by graphviz version 2.38.0 (20140413.2041)
 -->
<!-- Title: jdk.accessibility Pages: 1 -->
<svg width="259pt" height="301pt"
 viewBox="0.00 0.00 259.00 301.00" xmlns="http://www.w3.org/2000/svg" xmlns:xlink="http://www.w3.org/1999/xlink">
<g id="graph0" class="graph" transform="scale(1 1) rotate(0) translate(4 297)">
<title>jdk.accessibility</title>
<polygon fill="white" stroke="none" points="-4,4 -4,-297 255,-297 255,4 -4,4"/>
<!-- java.xml -->
<g id="node1" class="node"><title>java.xml</title>
<text text-anchor="middle" x="43" y="-101.4" font-family="DejaVuSans" font-size="12.00" fill="#e76f00">java.xml</text>
</g>
<!-- java.base -->
<g id="node3" class="node"><title>java.base</title>
<text text-anchor="middle" x="43" y="-17.4" font-family="DejaVuSans" font-size="12.00" fill="#e76f00">java.base</text>
</g>
<!-- java.xml&#45;&gt;java.base -->
<g id="edge4" class="edge"><title>java.xml&#45;&gt;java.base</title>
<path fill="none" stroke="#999999" stroke-width="2" d="M43,-83.6501C43,-73.9808 43,-62.1502 43,-51.4157"/>
<polygon fill="#999999" stroke="#999999" stroke-width="2" points="43,-41.1671 47.5001,-51.1671 43.5,-46.1671 43.5001,-51.1671 43.0001,-51.1671 42.5001,-51.1671 42.5,-46.1671 38.5001,-51.1672 43,-41.1671 43,-41.1671"/>
</g>
<!-- java.desktop -->
<g id="node2" class="node"><title>java.desktop</title>
<text text-anchor="middle" x="114" y="-185.4" font-family="DejaVuSans" font-size="12.00" fill="#e76f00">java.desktop</text>
</g>
<!-- java.desktop&#45;&gt;java.xml -->
<g id="edge2" class="edge"><title>java.desktop&#45;&gt;java.xml</title>
<path fill="none" stroke="#999999" stroke-width="2" d="M96.8129,-167.65C87.743,-157.175 76.4769,-144.163 66.6004,-132.757"/>
<polygon fill="#999999" stroke="#999999" stroke-width="2" points="60.0288,-125.167 69.9767,-129.781 63.6798,-128.62 66.9527,-132.4 66.5747,-132.727 66.1967,-133.054 62.9238,-129.274 63.1727,-135.673 60.0288,-125.167 60.0288,-125.167"/>
</g>
<!-- java.datatransfer -->
<g id="node4" class="node"><title>java.datatransfer</title>
<text text-anchor="middle" x="185" y="-101.4" font-family="DejaVuSans" font-size="12.00" fill="#e76f00">java.datatransfer</text>
</g>
<!-- java.desktop&#45;&gt;java.datatransfer -->
<g id="edge3" class="edge"><title>java.desktop&#45;&gt;java.datatransfer</title>
<path fill="none" stroke="#999999" stroke-width="2" d="M131.187,-167.65C140.257,-157.175 151.523,-144.163 161.4,-132.757"/>
<polygon fill="#999999" stroke="#999999" stroke-width="2" points="167.971,-125.167 164.827,-135.673 165.076,-129.274 161.803,-133.054 161.425,-132.727 161.047,-132.4 164.32,-128.62 158.023,-129.781 167.971,-125.167 167.971,-125.167"/>
</g>
<!-- java.datatransfer&#45;&gt;java.base -->
<g id="edge1" class="edge"><title>java.datatransfer&#45;&gt;java.base</title>
<path fill="none" stroke="#999999" stroke-width="2" d="M150.987,-83.859C131.46,-72.5823 106.753,-58.3149 85.9011,-46.2739"/>
<polygon fill="#999999" stroke="#999999" stroke-width="2" points="77.2272,-41.265 88.1374,-42.3688 81.8071,-43.3324 86.137,-45.8328 85.887,-46.2658 85.637,-46.6988 81.307,-44.1984 83.6366,-50.1627 77.2272,-41.265 77.2272,-41.265"/>
</g>
<!-- jdk.accessibility -->
<g id="node5" class="node"><title>jdk.accessibility</title>
<text text-anchor="middle" x="114" y="-269.4" font-family="DejaVuSans" font-size="12.00" fill="#437291">jdk.accessibility</text>
</g>
<!-- jdk.accessibility&#45;&gt;java.desktop -->
<g id="edge5" class="edge"><title>jdk.accessibility&#45;&gt;java.desktop</title>
<path fill="none" stroke="#999999" stroke-width="2" d="M114,-251.65C114,-241.981 114,-230.15 114,-219.416"/>
<polygon fill="#999999" stroke="#999999" stroke-width="2" points="114,-209.167 118.5,-219.167 114.5,-214.167 114.5,-219.167 114,-219.167 113.5,-219.167 113.5,-214.167 109.5,-219.167 114,-209.167 114,-209.167"/>
</g>
</g>
</svg>
