<?xml version="1.0" encoding="UTF-8" standalone="no"?>
<!DOCTYPE svg PUBLIC "-//W3C//DTD SVG 1.1//EN"
 "http://www.w3.org/Graphics/SVG/1.1/DTD/svg11.dtd">
<!-- Generated by graphviz version 2.38.0 (20140413.2041)
 -->
<!-- Title: java.sql Pages: 1 -->
<svg width="403pt" height="217pt"
 viewBox="0.00 0.00 403.00 217.00" xmlns="http://www.w3.org/2000/svg" xmlns:xlink="http://www.w3.org/1999/xlink">
<g id="graph0" class="graph" transform="scale(1 1) rotate(0) translate(4 213)">
<title>java.sql</title>
<polygon fill="white" stroke="none" points="-4,4 -4,-213 399,-213 399,4 -4,4"/>
<!-- java.logging -->
<g id="node1" class="node"><title>java.logging</title>
<text text-anchor="middle" x="50.5" y="-101.4" font-family="DejaVuSans" font-size="12.00" fill="#e76f00">java.logging</text>
</g>
<!-- java.base -->
<g id="node5" class="node"><title>java.base</title>
<text text-anchor="middle" x="176.5" y="-17.4" font-family="DejaVuSans" font-size="12.00" fill="#e76f00">java.base</text>
</g>
<!-- java.logging&#45;&gt;java.base -->
<g id="edge1" class="edge"><title>java.logging&#45;&gt;java.base</title>
<path fill="none" stroke="#999999" stroke-width="2" d="M80.6801,-83.859C97.6982,-72.7837 119.149,-58.8235 137.438,-46.9211"/>
<polygon fill="#999999" stroke="#999999" stroke-width="2" points="146.129,-41.265 140.203,-50.4912 142.211,-44.4113 138.021,-47.1387 137.748,-46.7196 137.475,-46.3005 141.666,-43.5732 135.293,-42.9479 146.129,-41.265 146.129,-41.265"/>
</g>
<!-- java.xml -->
<g id="node2" class="node"><title>java.xml</title>
<text text-anchor="middle" x="176.5" y="-101.4" font-family="DejaVuSans" font-size="12.00" fill="#e76f00">java.xml</text>
</g>
<!-- java.xml&#45;&gt;java.base -->
<g id="edge6" class="edge"><title>java.xml&#45;&gt;java.base</title>
<path fill="none" stroke="#999999" stroke-width="2" d="M176.5,-83.6501C176.5,-73.9808 176.5,-62.1502 176.5,-51.4157"/>
<polygon fill="#999999" stroke="#999999" stroke-width="2" points="176.5,-41.1671 181,-51.1671 177,-46.1671 177,-51.1671 176.5,-51.1671 176,-51.1671 176,-46.1671 172,-51.1672 176.5,-41.1671 176.5,-41.1671"/>
</g>
<!-- java.sql -->
<g id="node3" class="node"><title>java.sql</title>
<text text-anchor="middle" x="176.5" y="-185.4" font-family="DejaVuSans" font-size="12.00" fill="#e76f00">java.sql</text>
</g>
<!-- java.sql&#45;&gt;java.logging -->
<g id="edge2" class="edge"><title>java.sql&#45;&gt;java.logging</title>
<path fill="none" stroke="#999999" stroke-width="2" d="M146.32,-167.859C129.302,-156.784 107.851,-142.824 89.5616,-130.921"/>
<polygon fill="#999999" stroke="#999999" stroke-width="2" points="80.8706,-125.265 91.7066,-126.948 85.334,-127.573 89.5247,-130.301 89.252,-130.72 88.9793,-131.139 84.7886,-128.411 86.7974,-134.491 80.8706,-125.265 80.8706,-125.265"/>
</g>
<!-- java.sql&#45;&gt;java.xml -->
<g id="edge4" class="edge"><title>java.sql&#45;&gt;java.xml</title>
<path fill="none" stroke="#999999" stroke-width="2" d="M176.5,-167.65C176.5,-157.981 176.5,-146.15 176.5,-135.416"/>
<polygon fill="#999999" stroke="#999999" stroke-width="2" points="176.5,-125.167 181,-135.167 177,-130.167 177,-135.167 176.5,-135.167 176,-135.167 176,-130.167 172,-135.167 176.5,-125.167 176.5,-125.167"/>
</g>
<!-- java.transaction.xa -->
<g id="node4" class="node"><title>java.transaction.xa</title>
<text text-anchor="middle" x="323.5" y="-101.4" font-family="DejaVuSans" font-size="12.00" fill="#e76f00">java.transaction.xa</text>
</g>
<!-- java.sql&#45;&gt;java.transaction.xa -->
<g id="edge3" class="edge"><title>java.sql&#45;&gt;java.transaction.xa</title>
<path fill="none" stroke="#999999" stroke-width="2" d="M211.71,-167.859C232,-156.541 257.691,-142.21 279.326,-130.141"/>
<polygon fill="#999999" stroke="#999999" stroke-width="2" points="288.323,-125.123 281.782,-133.924 284.2,-127.995 279.833,-130.431 279.59,-129.994 279.346,-129.558 283.713,-127.122 277.397,-126.064 288.323,-125.123 288.323,-125.123"/>
</g>
<!-- java.transaction.xa&#45;&gt;java.base -->
<g id="edge5" class="edge"><title>java.transaction.xa&#45;&gt;java.base</title>
<path fill="none" stroke="#999999" stroke-width="2" d="M288.29,-83.859C268,-72.5409 242.309,-58.21 220.674,-46.1412"/>
<polygon fill="#999999" stroke="#999999" stroke-width="2" points="211.677,-41.1227 222.603,-42.0644 216.287,-43.1219 220.654,-45.5577 220.41,-45.9943 220.167,-46.431 215.8,-43.9952 218.218,-49.9242 211.677,-41.1227 211.677,-41.1227"/>
</g>
</g>
</svg>
