<?xml version="1.0" encoding="UTF-8" standalone="no"?>
<!DOCTYPE svg PUBLIC "-//W3C//DTD SVG 1.1//EN"
 "http://www.w3.org/Graphics/SVG/1.1/DTD/svg11.dtd">
<!-- Generated by graphviz version 2.38.0 (20140413.2041)
 -->
<!-- Title: java.se Pages: 1 -->
<svg width="2063pt" height="385pt"
 viewBox="0.00 0.00 2062.50 385.00" xmlns="http://www.w3.org/2000/svg" xmlns:xlink="http://www.w3.org/1999/xlink">
<g id="graph0" class="graph" transform="scale(1 1) rotate(0) translate(4 381)">
<title>java.se</title>
<polygon fill="white" stroke="none" points="-4,4 -4,-381 2058.5,-381 2058.5,4 -4,4"/>
<!-- java.logging -->
<g id="node1" class="node"><title>java.logging</title>
<text text-anchor="middle" x="368" y="-101.4" font-family="DejaVuSans" font-size="12.00" fill="#e76f00">java.logging</text>
</g>
<!-- java.base -->
<g id="node10" class="node"><title>java.base</title>
<text text-anchor="middle" x="639" y="-17.4" font-family="DejaVuSans" font-size="12.00" fill="#e76f00">java.base</text>
</g>
<!-- java.logging&#45;&gt;java.base -->
<g id="edge6" class="edge"><title>java.logging&#45;&gt;java.base</title>
<path fill="none" stroke="#999999" stroke-width="2" d="M418.655,-88.1726C466.382,-73.7313 537.608,-52.1796 586.065,-37.5171"/>
<polygon fill="#999999" stroke="#999999" stroke-width="2" points="595.741,-34.5893 587.473,-41.7927 591.101,-36.516 586.315,-37.9641 586.17,-37.4855 586.025,-37.007 590.811,-35.5589 584.867,-33.1784 595.741,-34.5893 595.741,-34.5893"/>
</g>
<!-- java.scripting -->
<g id="node2" class="node"><title>java.scripting</title>
<text text-anchor="middle" x="509" y="-101.4" font-family="DejaVuSans" font-size="12.00" fill="#e76f00">java.scripting</text>
</g>
<!-- java.scripting&#45;&gt;java.base -->
<g id="edge14" class="edge"><title>java.scripting&#45;&gt;java.base</title>
<path fill="none" stroke="#999999" stroke-width="2" d="M540.138,-83.859C557.776,-72.7334 580.03,-58.6966 598.955,-46.7589"/>
<polygon fill="#999999" stroke="#999999" stroke-width="2" points="607.665,-41.265 601.608,-50.4062 603.703,-44.3554 599.474,-47.023 599.207,-46.6001 598.941,-46.1772 603.17,-43.5096 596.806,-42.794 607.665,-41.265 607.665,-41.265"/>
</g>
<!-- java.xml -->
<g id="node3" class="node"><title>java.xml</title>
<text text-anchor="middle" x="639" y="-101.4" font-family="DejaVuSans" font-size="12.00" fill="#e76f00">java.xml</text>
</g>
<!-- java.xml&#45;&gt;java.base -->
<g id="edge34" class="edge"><title>java.xml&#45;&gt;java.base</title>
<path fill="none" stroke="#999999" stroke-width="2" d="M639,-83.6501C639,-73.9808 639,-62.1502 639,-51.4157"/>
<polygon fill="#999999" stroke="#999999" stroke-width="2" points="639,-41.1671 643.5,-51.1671 639.5,-46.1671 639.5,-51.1671 639,-51.1671 638.5,-51.1671 638.5,-46.1671 634.5,-51.1672 639,-41.1671 639,-41.1671"/>
</g>
<!-- java.sql -->
<g id="node4" class="node"><title>java.sql</title>
<text text-anchor="middle" x="639" y="-185.4" font-family="DejaVuSans" font-size="12.00" fill="#e76f00">java.sql</text>
</g>
<!-- java.sql&#45;&gt;java.logging -->
<g id="edge28" class="edge"><title>java.sql&#45;&gt;java.logging</title>
<path fill="none" stroke="#999999" stroke-width="2" d="M601.887,-176.27C557.262,-162.767 481.748,-139.918 428.621,-123.843"/>
<polygon fill="#999999" stroke="#999999" stroke-width="2" points="418.974,-120.924 429.849,-119.513 423.905,-121.893 428.691,-123.342 428.546,-123.82 428.401,-124.299 423.615,-122.851 427.242,-128.127 418.974,-120.924 418.974,-120.924"/>
</g>
<!-- java.sql&#45;&gt;java.xml -->
<g id="edge30" class="edge"><title>java.sql&#45;&gt;java.xml</title>
<path fill="none" stroke="#999999" stroke-width="2" d="M639,-167.65C639,-157.981 639,-146.15 639,-135.416"/>
<polygon fill="#999999" stroke="#999999" stroke-width="2" points="639,-125.167 643.5,-135.167 639.5,-130.167 639.5,-135.167 639,-135.167 638.5,-135.167 638.5,-130.167 634.5,-135.167 639,-125.167 639,-125.167"/>
</g>
<!-- java.transaction.xa -->
<g id="node5" class="node"><title>java.transaction.xa</title>
<text text-anchor="middle" x="210" y="-101.4" font-family="DejaVuSans" font-size="12.00" fill="#e76f00">java.transaction.xa</text>
</g>
<!-- java.sql&#45;&gt;java.transaction.xa -->
<g id="edge29" class="edge"><title>java.sql&#45;&gt;java.transaction.xa</title>
<path fill="none" stroke="#999999" stroke-width="2" d="M601.942,-181.112C539.378,-170.232 408.875,-147.129 299,-125 296.645,-124.526 294.256,-124.039 291.846,-123.543"/>
<polygon fill="#999999" stroke="#999999" stroke-width="2" points="281.847,-121.461 292.554,-119.094 286.844,-121.991 291.739,-123.01 291.637,-123.5 291.535,-123.989 286.64,-122.97 290.719,-127.905 281.847,-121.461 281.847,-121.461"/>
</g>
<!-- java.transaction.xa&#45;&gt;java.base -->
<g id="edge33" class="edge"><title>java.transaction.xa&#45;&gt;java.base</title>
<path fill="none" stroke="#999999" stroke-width="2" d="M281.847,-87.5394C287.645,-86.318 293.418,-85.1243 299,-84 400.292,-63.5995 519.116,-42.3713 586.079,-30.6552"/>
<polygon fill="#999999" stroke="#999999" stroke-width="2" points="595.973,-28.9274 586.896,-35.0807 591.133,-30.2802 586.208,-31.1404 586.122,-30.6478 586.036,-30.1553 590.961,-29.2951 585.348,-26.2149 595.973,-28.9274 595.973,-28.9274"/>
</g>
<!-- java.compiler -->
<g id="node6" class="node"><title>java.compiler</title>
<text text-anchor="middle" x="1055" y="-185.4" font-family="DejaVuSans" font-size="12.00" fill="#e76f00">java.compiler</text>
</g>
<!-- java.compiler&#45;&gt;java.base -->
<g id="edge1" class="edge"><title>java.compiler&#45;&gt;java.base</title>
<path fill="none" stroke="#999999" stroke-width="2" d="M1037.32,-167.79C1014.95,-144.122 974.11,-104.995 931,-84 853.233,-46.1275 752.801,-31.0732 692.28,-25.181"/>
<polygon fill="#999999" stroke="#999999" stroke-width="2" points="682.19,-24.2477 692.562,-20.6879 687.215,-24.2103 692.193,-24.6709 692.147,-25.1687 692.101,-25.6666 687.123,-25.2061 691.733,-29.6496 682.19,-24.2477 682.19,-24.2477"/>
</g>
<!-- java.instrument -->
<g id="node7" class="node"><title>java.instrument</title>
<text text-anchor="middle" x="1207" y="-185.4" font-family="DejaVuSans" font-size="12.00" fill="#e76f00">java.instrument</text>
</g>
<!-- java.instrument&#45;&gt;java.base -->
<g id="edge5" class="edge"><title>java.instrument&#45;&gt;java.base</title>
<path fill="none" stroke="#999999" stroke-width="2" d="M1173.06,-167.869C1131.14,-144.465 1057.03,-105.79 989,-84 886.819,-51.2704 762.033,-34.1723 692.451,-26.568"/>
<polygon fill="#999999" stroke="#999999" stroke-width="2" points="682.182,-25.4711 692.603,-22.0588 687.206,-25.505 692.178,-26.0361 692.125,-26.5333 692.072,-27.0305 687.1,-26.4994 691.647,-31.0079 682.182,-25.4711 682.182,-25.4711"/>
</g>
<!-- java.desktop -->
<g id="node8" class="node"><title>java.desktop</title>
<text text-anchor="middle" x="912" y="-185.4" font-family="DejaVuSans" font-size="12.00" fill="#e76f00">java.desktop</text>
</g>
<!-- java.desktop&#45;&gt;java.xml -->
<g id="edge3" class="edge"><title>java.desktop&#45;&gt;java.xml</title>
<path fill="none" stroke="#999999" stroke-width="2" d="M859.686,-171.787C810.294,-156.951 736.774,-134.868 688.37,-120.329"/>
<polygon fill="#999999" stroke="#999999" stroke-width="2" points="678.739,-117.436 689.611,-116.003 683.672,-118.396 688.46,-119.834 688.317,-120.313 688.173,-120.792 683.384,-119.354 687.022,-124.623 678.739,-117.436 678.739,-117.436"/>
</g>
<!-- java.datatransfer -->
<g id="node11" class="node"><title>java.datatransfer</title>
<text text-anchor="middle" x="847" y="-101.4" font-family="DejaVuSans" font-size="12.00" fill="#e76f00">java.datatransfer</text>
</g>
<!-- java.desktop&#45;&gt;java.datatransfer -->
<g id="edge4" class="edge"><title>java.desktop&#45;&gt;java.datatransfer</title>
<path fill="none" stroke="#999999" stroke-width="2" d="M896.265,-167.65C888.042,-157.276 877.846,-144.413 868.867,-133.086"/>
<polygon fill="#999999" stroke="#999999" stroke-width="2" points="862.59,-125.167 872.328,-130.208 866.088,-128.775 869.194,-132.693 868.802,-133.004 868.41,-133.314 865.304,-129.396 865.275,-135.799 862.59,-125.167 862.59,-125.167"/>
</g>
<!-- java.management -->
<g id="node9" class="node"><title>java.management</title>
<text text-anchor="middle" x="1487" y="-185.4" font-family="DejaVuSans" font-size="12.00" fill="#e76f00">java.management</text>
</g>
<!-- java.management&#45;&gt;java.base -->
<g id="edge7" class="edge"><title>java.management&#45;&gt;java.base</title>
<path fill="none" stroke="#999999" stroke-width="2" d="M1435.21,-167.991C1370.9,-144.526 1257.38,-105.604 1157,-84 989.491,-47.9466 786.712,-31.0496 692.241,-24.6838"/>
<polygon fill="#999999" stroke="#999999" stroke-width="2" points="682.08,-24.0119 692.356,-20.1817 687.103,-23.843 692.092,-24.173 692.059,-24.6719 692.026,-25.1708 687.037,-24.8408 691.762,-29.1621 682.08,-24.0119 682.08,-24.0119"/>
</g>
<!-- java.datatransfer&#45;&gt;java.base -->
<g id="edge2" class="edge"><title>java.datatransfer&#45;&gt;java.base</title>
<path fill="none" stroke="#999999" stroke-width="2" d="M797.443,-83.9631C765.509,-71.3736 724.036,-55.0239 691.532,-42.2098"/>
<polygon fill="#999999" stroke="#999999" stroke-width="2" points="682.187,-38.5255 693.14,-38.0067 687.021,-39.8941 691.673,-41.728 691.49,-42.1931 691.306,-42.6583 686.655,-40.8244 689.839,-46.3795 682.187,-38.5255 682.187,-38.5255"/>
</g>
<!-- java.management.rmi -->
<g id="node12" class="node"><title>java.management.rmi</title>
<text text-anchor="middle" x="1343" y="-269.4" font-family="DejaVuSans" font-size="12.00" fill="#e76f00">java.management.rmi</text>
</g>
<!-- java.management.rmi&#45;&gt;java.management -->
<g id="edge9" class="edge"><title>java.management.rmi&#45;&gt;java.management</title>
<path fill="none" stroke="#999999" stroke-width="2" d="M1377.49,-251.859C1397.29,-240.582 1422.35,-226.315 1443.49,-214.274"/>
<polygon fill="#999999" stroke="#999999" stroke-width="2" points="1452.29,-209.265 1445.83,-218.124 1448.19,-212.174 1443.85,-214.648 1443.6,-214.213 1443.35,-213.779 1447.7,-211.305 1441.37,-210.303 1452.29,-209.265 1452.29,-209.265"/>
</g>
<!-- java.rmi -->
<g id="node16" class="node"><title>java.rmi</title>
<text text-anchor="middle" x="1343" y="-185.4" font-family="DejaVuSans" font-size="12.00" fill="#e76f00">java.rmi</text>
</g>
<!-- java.management.rmi&#45;&gt;java.rmi -->
<g id="edge8" class="edge"><title>java.management.rmi&#45;&gt;java.rmi</title>
<path fill="none" stroke="#999999" stroke-width="2" d="M1343,-251.65C1343,-241.981 1343,-230.15 1343,-219.416"/>
<polygon fill="#999999" stroke="#999999" stroke-width="2" points="1343,-209.167 1347.5,-219.167 1343.5,-214.167 1343.5,-219.167 1343,-219.167 1342.5,-219.167 1342.5,-214.167 1338.5,-219.167 1343,-209.167 1343,-209.167"/>
</g>
<!-- java.naming -->
<g id="node13" class="node"><title>java.naming</title>
<text text-anchor="middle" x="51" y="-101.4" font-family="DejaVuSans" font-size="12.00" fill="#e76f00">java.naming</text>
</g>
<!-- java.naming&#45;&gt;java.base -->
<g id="edge10" class="edge"><title>java.naming&#45;&gt;java.base</title>
<path fill="none" stroke="#999999" stroke-width="2" d="M102.029,-88.1231C108.054,-86.5921 114.141,-85.1732 120,-84 288.33,-50.2919 491.263,-32.2743 585.758,-25.1635"/>
<polygon fill="#999999" stroke="#999999" stroke-width="2" points="595.921,-24.4095 586.281,-29.6371 590.971,-25.2781 585.985,-25.6481 585.948,-25.1495 585.911,-24.6508 590.897,-24.2809 585.615,-20.6618 595.921,-24.4095 595.921,-24.4095"/>
</g>
<!-- java.net.http -->
<g id="node14" class="node"><title>java.net.http</title>
<text text-anchor="middle" x="1644" y="-185.4" font-family="DejaVuSans" font-size="12.00" fill="#e76f00">java.net.http</text>
</g>
<!-- java.net.http&#45;&gt;java.base -->
<g id="edge11" class="edge"><title>java.net.http&#45;&gt;java.base</title>
<path fill="none" stroke="#999999" stroke-width="2" d="M1591.69,-170.495C1518.21,-147.286 1379.86,-106.059 1259,-84 1051.46,-46.1198 800.349,-29.6838 692.471,-24.0021"/>
<polygon fill="#999999" stroke="#999999" stroke-width="2" points="682.177,-23.4699 692.396,-19.4923 687.196,-23.2288 692.19,-23.487 692.164,-23.9863 692.138,-24.4857 687.145,-24.2274 691.932,-28.4803 682.177,-23.4699 682.177,-23.4699"/>
</g>
<!-- java.prefs -->
<g id="node15" class="node"><title>java.prefs</title>
<text text-anchor="middle" x="1710" y="-101.4" font-family="DejaVuSans" font-size="12.00" fill="#e76f00">java.prefs</text>
</g>
<!-- java.prefs&#45;&gt;java.base -->
<g id="edge12" class="edge"><title>java.prefs&#45;&gt;java.base</title>
<path fill="none" stroke="#999999" stroke-width="2" d="M1665.9,-94.013C1647.47,-90.3651 1625.78,-86.4839 1606,-84 1259.2,-40.4419 838.388,-26.4192 692.12,-22.6813"/>
<polygon fill="#999999" stroke="#999999" stroke-width="2" points="682.067,-22.4297 692.177,-18.1814 687.078,-22.055 692.077,-22.1802 692.064,-22.68 692.052,-23.1799 687.053,-23.0547 691.952,-27.1786 682.067,-22.4297 682.067,-22.4297"/>
</g>
<!-- java.rmi&#45;&gt;java.base -->
<g id="edge13" class="edge"><title>java.rmi&#45;&gt;java.base</title>
<path fill="none" stroke="#999999" stroke-width="2" d="M1304.09,-169.874C1251.41,-146.72 1153.98,-106.384 1067,-84 934.492,-49.8986 773.791,-32.6789 692.155,-25.5851"/>
<polygon fill="#999999" stroke="#999999" stroke-width="2" points="682.123,-24.7299 692.469,-21.0956 687.147,-24.6564 692.129,-25.0811 692.087,-25.5793 692.044,-26.0775 687.062,-25.6528 691.705,-30.0631 682.123,-24.7299 682.123,-24.7299"/>
</g>
<!-- java.se -->
<g id="node17" class="node"><title>java.se</title>
<text text-anchor="middle" x="639" y="-353.4" font-family="DejaVuSans" font-size="12.00" fill="#e76f00">java.se</text>
</g>
<!-- java.se&#45;&gt;java.scripting -->
<g id="edge18" class="edge"><title>java.se&#45;&gt;java.scripting</title>
<path fill="none" stroke="#999999" stroke-width="2" d="M674.79,-336.317C690.51,-325.805 707.338,-311.187 716,-293 740.256,-242.072 732.475,-209.252 694,-168 685.302,-158.674 622.916,-138.719 572.96,-123.852"/>
<polygon fill="#999999" stroke="#999999" stroke-width="2" points="563.154,-120.951 574.02,-119.473 568.091,-121.89 572.885,-123.308 572.743,-123.788 572.601,-124.267 567.807,-122.849 571.467,-128.103 563.154,-120.951 563.154,-120.951"/>
</g>
<!-- java.se&#45;&gt;java.compiler -->
<g id="edge17" class="edge"><title>java.se&#45;&gt;java.compiler</title>
<path fill="none" stroke="#999999" stroke-width="2" d="M674.653,-352.334C751.387,-344.989 929.34,-324.938 980,-293 1008.5,-275.03 1029.58,-241.965 1042.01,-218.034"/>
<polygon fill="#999999" stroke="#999999" stroke-width="2" points="1046.5,-209.043 1046.06,-220 1044.72,-213.739 1042.48,-218.212 1042.03,-217.989 1041.59,-217.765 1043.82,-213.292 1038.01,-215.978 1046.5,-209.043 1046.5,-209.043"/>
</g>
<!-- java.se&#45;&gt;java.instrument -->
<g id="edge25" class="edge"><title>java.se&#45;&gt;java.instrument</title>
<path fill="none" stroke="#999999" stroke-width="2" d="M674.668,-354.09C744.457,-350.402 903.139,-337.418 1028,-293 1081.47,-273.978 1137.17,-238.976 1171.95,-214.986"/>
<polygon fill="#999999" stroke="#999999" stroke-width="2" points="1180.33,-209.141 1174.7,-218.554 1176.51,-212.412 1172.41,-215.273 1172.13,-214.863 1171.84,-214.453 1175.94,-211.592 1169.55,-211.173 1180.33,-209.141 1180.33,-209.141"/>
</g>
<!-- java.se&#45;&gt;java.desktop -->
<g id="edge16" class="edge"><title>java.se&#45;&gt;java.desktop</title>
<path fill="none" stroke="#999999" stroke-width="2" d="M674.558,-353.736C748.097,-349.265 912.899,-334.716 947,-293 964.884,-271.123 950.103,-239.66 934.617,-217.175"/>
<polygon fill="#999999" stroke="#999999" stroke-width="2" points="928.714,-209.036 938.227,-214.489 932.054,-212.79 934.989,-216.837 934.585,-217.131 934.18,-217.424 931.244,-213.377 930.942,-219.773 928.714,-209.036 928.714,-209.036"/>
</g>
<!-- java.se&#45;&gt;java.management.rmi -->
<g id="edge24" class="edge"><title>java.se&#45;&gt;java.management.rmi</title>
<path fill="none" stroke="#999999" stroke-width="2" d="M674.675,-351.791C763.288,-342.516 1000.52,-317.315 1198,-293 1215.28,-290.872 1233.7,-288.486 1251.42,-286.132"/>
<polygon fill="#999999" stroke="#999999" stroke-width="2" points="1261.75,-284.752 1252.43,-290.536 1256.86,-285.909 1251.9,-286.571 1251.84,-286.076 1251.77,-285.58 1256.73,-284.918 1251.24,-281.615 1261.75,-284.752 1261.75,-284.752"/>
</g>
<!-- java.se&#45;&gt;java.net.http -->
<g id="edge22" class="edge"><title>java.se&#45;&gt;java.net.http</title>
<path fill="none" stroke="#999999" stroke-width="2" d="M674.774,-354.585C810.65,-350.82 1294.49,-334.712 1442,-293 1503.16,-275.704 1567.44,-239.114 1606.63,-214.41"/>
<polygon fill="#999999" stroke="#999999" stroke-width="2" points="1615.08,-209.023 1609.07,-218.194 1611.14,-212.133 1606.92,-214.821 1606.65,-214.399 1606.38,-213.978 1610.6,-211.289 1604.23,-210.605 1615.08,-209.023 1615.08,-209.023"/>
</g>
<!-- java.se&#45;&gt;java.prefs -->
<g id="edge20" class="edge"><title>java.se&#45;&gt;java.prefs</title>
<path fill="none" stroke="#999999" stroke-width="2" d="M674.628,-354.56C818.212,-350.526 1354.56,-333.037 1519,-293 1610.69,-270.677 1662.13,-287.829 1714,-209 1728.25,-187.344 1725.18,-157.255 1719.78,-135.099"/>
<polygon fill="#999999" stroke="#999999" stroke-width="2" points="1717.1,-125.235 1724.07,-133.704 1718.89,-129.928 1720.21,-134.753 1719.72,-134.884 1719.24,-135.015 1717.93,-130.191 1715.38,-136.065 1717.1,-125.235 1717.1,-125.235"/>
</g>
<!-- java.security.jgss -->
<g id="node18" class="node"><title>java.security.jgss</title>
<text text-anchor="middle" x="1825" y="-269.4" font-family="DejaVuSans" font-size="12.00" fill="#e76f00">java.security.jgss</text>
</g>
<!-- java.se&#45;&gt;java.security.jgss -->
<g id="edge15" class="edge"><title>java.se&#45;&gt;java.security.jgss</title>
<path fill="none" stroke="#999999" stroke-width="2" d="M674.603,-355.424C811.856,-354.72 1319.58,-348.297 1733,-293 1738.7,-292.237 1744.58,-291.315 1750.47,-290.292"/>
<polygon fill="#999999" stroke="#999999" stroke-width="2" points="1760.38,-288.485 1751.35,-294.707 1755.55,-289.874 1750.63,-290.771 1750.54,-290.28 1750.45,-289.788 1755.37,-288.89 1749.73,-285.853 1760.38,-288.485 1760.38,-288.485"/>
</g>
<!-- java.security.sasl -->
<g id="node19" class="node"><title>java.security.sasl</title>
<text text-anchor="middle" x="1990" y="-269.4" font-family="DejaVuSans" font-size="12.00" fill="#e76f00">java.security.sasl</text>
</g>
<!-- java.se&#45;&gt;java.security.sasl -->
<g id="edge23" class="edge"><title>java.se&#45;&gt;java.security.sasl</title>
<path fill="none" stroke="#999999" stroke-width="2" d="M674.592,-354.62C853.887,-350.051 1659.29,-327.909 1907,-293 1909.82,-292.603 1912.68,-292.156 1915.56,-291.668"/>
<polygon fill="#999999" stroke="#999999" stroke-width="2" points="1925.42,-289.868 1916.39,-296.091 1920.59,-291.258 1915.67,-292.156 1915.58,-291.664 1915.49,-291.172 1920.41,-290.274 1914.78,-287.237 1925.42,-289.868 1925.42,-289.868"/>
</g>
<!-- java.sql.rowset -->
<g id="node20" class="node"><title>java.sql.rowset</title>
<text text-anchor="middle" x="639" y="-269.4" font-family="DejaVuSans" font-size="12.00" fill="#e76f00">java.sql.rowset</text>
</g>
<!-- java.se&#45;&gt;java.sql.rowset -->
<g id="edge21" class="edge"><title>java.se&#45;&gt;java.sql.rowset</title>
<path fill="none" stroke="#999999" stroke-width="2" d="M639,-335.65C639,-325.981 639,-314.15 639,-303.416"/>
<polygon fill="#999999" stroke="#999999" stroke-width="2" points="639,-293.167 643.5,-303.167 639.5,-298.167 639.5,-303.167 639,-303.167 638.5,-303.167 638.5,-298.167 634.5,-303.167 639,-293.167 639,-293.167"/>
</g>
<!-- java.xml.crypto -->
<g id="node21" class="node"><title>java.xml.crypto</title>
<text text-anchor="middle" x="869" y="-269.4" font-family="DejaVuSans" font-size="12.00" fill="#e76f00">java.xml.crypto</text>
</g>
<!-- java.se&#45;&gt;java.xml.crypto -->
<g id="edge19" class="edge"><title>java.se&#45;&gt;java.xml.crypto</title>
<path fill="none" stroke="#999999" stroke-width="2" d="M674.685,-342.777C709.218,-330.466 762.353,-311.522 804.338,-296.554"/>
<polygon fill="#999999" stroke="#999999" stroke-width="2" points="813.932,-293.133 806.023,-300.73 809.39,-295.283 804.68,-296.962 804.512,-296.491 804.344,-296.02 809.054,-294.341 803.001,-292.253 813.932,-293.133 813.932,-293.133"/>
</g>
<!-- java.security.jgss&#45;&gt;java.base -->
<g id="edge26" class="edge"><title>java.security.jgss&#45;&gt;java.base</title>
<path fill="none" stroke="#999999" stroke-width="2" d="M1826.17,-251.96C1827.31,-212.887 1823.62,-125.337 1772,-84 1729.4,-49.8877 911.437,-27.9975 692.508,-22.7332"/>
<polygon fill="#999999" stroke="#999999" stroke-width="2" points="682.24,-22.4879 692.345,-18.2281 687.251,-22.1075 692.249,-22.2269 692.237,-22.7268 692.225,-23.2267 687.227,-23.1072 692.13,-27.2255 682.24,-22.4879 682.24,-22.4879"/>
</g>
<!-- java.security.sasl&#45;&gt;java.base -->
<g id="edge27" class="edge"><title>java.security.sasl&#45;&gt;java.base</title>
<path fill="none" stroke="#999999" stroke-width="2" d="M1978.98,-251.819C1955.25,-211.671 1895.03,-121.002 1816,-84 1713.44,-35.9794 908.115,-24.2735 692.143,-21.9854"/>
<polygon fill="#999999" stroke="#999999" stroke-width="2" points="682.012,-21.8804 692.058,-17.4843 687.017,-21.4323 692.016,-21.4841 692.011,-21.9841 692.006,-22.4841 687.006,-22.4322 691.965,-26.4839 682.012,-21.8804 682.012,-21.8804"/>
</g>
<!-- java.sql.rowset&#45;&gt;java.sql -->
<g id="edge31" class="edge"><title>java.sql.rowset&#45;&gt;java.sql</title>
<path fill="none" stroke="#999999" stroke-width="2" d="M639,-251.65C639,-241.981 639,-230.15 639,-219.416"/>
<polygon fill="#999999" stroke="#999999" stroke-width="2" points="639,-209.167 643.5,-219.167 639.5,-214.167 639.5,-219.167 639,-219.167 638.5,-219.167 638.5,-214.167 634.5,-219.167 639,-209.167 639,-209.167"/>
</g>
<!-- java.sql.rowset&#45;&gt;java.naming -->
<g id="edge32" class="edge"><title>java.sql.rowset&#45;&gt;java.naming</title>
<path fill="none" stroke="#999999" stroke-width="2" d="M579.844,-254.808C483.497,-227.621 286.685,-172.079 120,-125 117.394,-124.264 114.734,-123.512 112.045,-122.753"/>
<polygon fill="#999999" stroke="#999999" stroke-width="2" points="102.244,-119.984 113.091,-118.372 107.192,-120.862 112.003,-122.222 111.867,-122.703 111.731,-123.184 106.92,-121.825 110.644,-127.033 102.244,-119.984 102.244,-119.984"/>
</g>
<!-- java.xml.crypto&#45;&gt;java.xml -->
<g id="edge35" class="edge"><title>java.xml.crypto&#45;&gt;java.xml</title>
<path fill="none" stroke="#999999" stroke-width="2" d="M851.304,-251.864C830.635,-229.676 794.702,-193.357 759,-168 736.866,-152.28 710.259,-138.015 687.729,-127.095"/>
<polygon fill="#999999" stroke="#999999" stroke-width="2" points="678.671,-122.777 689.634,-123.018 683.399,-124.478 687.913,-126.629 687.698,-127.081 687.483,-127.532 682.969,-125.38 685.761,-131.143 678.671,-122.777 678.671,-122.777"/>
</g>
</g>
</svg>
