<?xml version="1.0" encoding="UTF-8" standalone="no"?>
<!DOCTYPE svg PUBLIC "-//W3C//DTD SVG 1.1//EN"
 "http://www.w3.org/Graphics/SVG/1.1/DTD/svg11.dtd">
<!-- Generated by graphviz version 2.38.0 (20140413.2041)
 -->
<!-- Title: jdk.jshell Pages: 1 -->
<svg width="350pt" height="217pt"
 viewBox="0.00 0.00 350.00 217.00" xmlns="http://www.w3.org/2000/svg" xmlns:xlink="http://www.w3.org/1999/xlink">
<g id="graph0" class="graph" transform="scale(1 1) rotate(0) translate(4 213)">
<title>jdk.jshell</title>
<polygon fill="white" stroke="none" points="-4,4 -4,-213 346,-213 346,4 -4,4"/>
<!-- java.compiler -->
<g id="node1" class="node"><title>java.compiler</title>
<text text-anchor="middle" x="55" y="-101.4" font-family="DejaVuSans" font-size="12.00" fill="#e76f00">java.compiler</text>
</g>
<!-- java.base -->
<g id="node2" class="node"><title>java.base</title>
<text text-anchor="middle" x="190" y="-17.4" font-family="DejaVuSans" font-size="12.00" fill="#e76f00">java.base</text>
</g>
<!-- java.compiler&#45;&gt;java.base -->
<g id="edge1" class="edge"><title>java.compiler&#45;&gt;java.base</title>
<path fill="none" stroke="#999999" stroke-width="2" d="M87.3359,-83.859C105.735,-72.683 128.971,-58.5695 148.682,-46.597"/>
<polygon fill="#999999" stroke="#999999" stroke-width="2" points="157.46,-41.265 151.249,-50.3026 153.446,-44.2881 149.173,-46.8838 148.913,-46.4565 148.654,-46.0291 152.927,-43.4334 146.577,-42.6104 157.46,-41.265 157.46,-41.265"/>
</g>
<!-- java.prefs -->
<g id="node3" class="node"><title>java.prefs</title>
<text text-anchor="middle" x="190" y="-101.4" font-family="DejaVuSans" font-size="12.00" fill="#e76f00">java.prefs</text>
</g>
<!-- java.prefs&#45;&gt;java.base -->
<g id="edge2" class="edge"><title>java.prefs&#45;&gt;java.base</title>
<path fill="none" stroke="#999999" stroke-width="2" d="M190,-83.6501C190,-73.9808 190,-62.1502 190,-51.4157"/>
<polygon fill="#999999" stroke="#999999" stroke-width="2" points="190,-41.1671 194.5,-51.1671 190.5,-46.1671 190.5,-51.1671 190,-51.1671 189.5,-51.1671 189.5,-46.1671 185.5,-51.1672 190,-41.1671 190,-41.1671"/>
</g>
<!-- jdk.jdi -->
<g id="node4" class="node"><title>jdk.jdi</title>
<text text-anchor="middle" x="302" y="-101.4" font-family="DejaVuSans" font-size="12.00" fill="#437291">jdk.jdi</text>
</g>
<!-- jdk.jdi&#45;&gt;java.base -->
<g id="edge3" class="edge"><title>jdk.jdi&#45;&gt;java.base</title>
<path fill="none" stroke="#999999" stroke-width="2" d="M275.173,-83.859C260.184,-72.8844 241.325,-59.0771 225.166,-47.2462"/>
<polygon fill="#999999" stroke="#999999" stroke-width="2" points="216.996,-41.265 227.723,-43.5415 221.326,-43.8153 225.36,-46.769 225.065,-47.1724 224.769,-47.5758 220.735,-44.6221 222.406,-50.8033 216.996,-41.265 216.996,-41.265"/>
</g>
<!-- jdk.jshell -->
<g id="node5" class="node"><title>jdk.jshell</title>
<text text-anchor="middle" x="302" y="-185.4" font-family="DejaVuSans" font-size="12.00" fill="#437291">jdk.jshell</text>
</g>
<!-- jdk.jshell&#45;&gt;java.compiler -->
<g id="edge5" class="edge"><title>jdk.jshell&#45;&gt;java.compiler</title>
<path fill="none" stroke="#999999" stroke-width="2" d="M261.765,-174.143C223.432,-161.417 165.064,-142.039 120.106,-127.114"/>
<polygon fill="#999999" stroke="#999999" stroke-width="2" points="110.44,-123.905 121.349,-122.785 115.343,-125.006 120.088,-126.581 119.931,-127.056 119.773,-127.531 115.028,-125.955 118.513,-131.327 110.44,-123.905 110.44,-123.905"/>
</g>
<!-- jdk.jshell&#45;&gt;java.prefs -->
<g id="edge6" class="edge"><title>jdk.jshell&#45;&gt;java.prefs</title>
<path fill="none" stroke="#999999" stroke-width="2" d="M275.173,-167.859C260.184,-156.884 241.325,-143.077 225.166,-131.246"/>
<polygon fill="#999999" stroke="#999999" stroke-width="2" points="216.996,-125.265 227.723,-127.542 221.326,-127.815 225.36,-130.769 225.065,-131.172 224.769,-131.576 220.735,-128.622 222.406,-134.803 216.996,-125.265 216.996,-125.265"/>
</g>
<!-- jdk.jshell&#45;&gt;jdk.jdi -->
<g id="edge4" class="edge"><title>jdk.jshell&#45;&gt;jdk.jdi</title>
<path fill="none" stroke="#999999" stroke-width="2" d="M302,-167.65C302,-157.981 302,-146.15 302,-135.416"/>
<polygon fill="#999999" stroke="#999999" stroke-width="2" points="302,-125.167 306.5,-135.167 302.5,-130.167 302.5,-135.167 302,-135.167 301.5,-135.167 301.5,-130.167 297.5,-135.167 302,-125.167 302,-125.167"/>
</g>
</g>
</svg>
