<?xml version="1.0" encoding="UTF-8" standalone="no"?>
<!DOCTYPE svg PUBLIC "-//W3C//DTD SVG 1.1//EN"
 "http://www.w3.org/Graphics/SVG/1.1/DTD/svg11.dtd">
<!-- Generated by graphviz version 2.38.0 (20140413.2041)
 -->
<!-- Title: jdk.security.auth Pages: 1 -->
<svg width="134pt" height="217pt"
 viewBox="0.00 0.00 134.00 217.00" xmlns="http://www.w3.org/2000/svg" xmlns:xlink="http://www.w3.org/1999/xlink">
<g id="graph0" class="graph" transform="scale(1 1) rotate(0) translate(4 213)">
<title>jdk.security.auth</title>
<polygon fill="white" stroke="none" points="-4,4 -4,-213 130,-213 130,4 -4,4"/>
<!-- java.base -->
<g id="node1" class="node"><title>java.base</title>
<text text-anchor="middle" x="63" y="-17.4" font-family="DejaVuSans" font-size="12.00" fill="#e76f00">java.base</text>
</g>
<!-- java.naming -->
<g id="node2" class="node"><title>java.naming</title>
<text text-anchor="middle" x="63" y="-101.4" font-family="DejaVuSans" font-size="12.00" fill="#e76f00">java.naming</text>
</g>
<!-- java.naming&#45;&gt;java.base -->
<g id="edge1" class="edge"><title>java.naming&#45;&gt;java.base</title>
<path fill="none" stroke="#999999" stroke-width="2" d="M63,-83.6501C63,-73.9808 63,-62.1502 63,-51.4157"/>
<polygon fill="#999999" stroke="#999999" stroke-width="2" points="63,-41.1671 67.5001,-51.1671 63.5,-46.1671 63.5001,-51.1671 63.0001,-51.1671 62.5001,-51.1671 62.5,-46.1671 58.5001,-51.1672 63,-41.1671 63,-41.1671"/>
</g>
<!-- jdk.security.auth -->
<g id="node3" class="node"><title>jdk.security.auth</title>
<text text-anchor="middle" x="63" y="-185.4" font-family="DejaVuSans" font-size="12.00" fill="#437291">jdk.security.auth</text>
</g>
<!-- jdk.security.auth&#45;&gt;java.naming -->
<g id="edge2" class="edge"><title>jdk.security.auth&#45;&gt;java.naming</title>
<path fill="none" stroke="#999999" stroke-width="2" d="M63,-167.65C63,-157.981 63,-146.15 63,-135.416"/>
<polygon fill="#999999" stroke="#999999" stroke-width="2" points="63,-125.167 67.5001,-135.167 63.5,-130.167 63.5001,-135.167 63.0001,-135.167 62.5001,-135.167 62.5,-130.167 58.5001,-135.167 63,-125.167 63,-125.167"/>
</g>
</g>
</svg>
