<?xml version="1.0" encoding="UTF-8" standalone="no"?>
<!DOCTYPE svg PUBLIC "-//W3C//DTD SVG 1.1//EN"
 "http://www.w3.org/Graphics/SVG/1.1/DTD/svg11.dtd">
<!-- Generated by graphviz version 2.38.0 (20140413.2041)
 -->
<!-- Title: jdk.xml.dom Pages: 1 -->
<svg width="110pt" height="217pt"
 viewBox="0.00 0.00 110.00 217.00" xmlns="http://www.w3.org/2000/svg" xmlns:xlink="http://www.w3.org/1999/xlink">
<g id="graph0" class="graph" transform="scale(1 1) rotate(0) translate(4 213)">
<title>jdk.xml.dom</title>
<polygon fill="white" stroke="none" points="-4,4 -4,-213 106,-213 106,4 -4,4"/>
<!-- java.xml -->
<g id="node1" class="node"><title>java.xml</title>
<text text-anchor="middle" x="51" y="-101.4" font-family="DejaVuSans" font-size="12.00" fill="#e76f00">java.xml</text>
</g>
<!-- java.base -->
<g id="node2" class="node"><title>java.base</title>
<text text-anchor="middle" x="51" y="-17.4" font-family="DejaVuSans" font-size="12.00" fill="#e76f00">java.base</text>
</g>
<!-- java.xml&#45;&gt;java.base -->
<g id="edge1" class="edge"><title>java.xml&#45;&gt;java.base</title>
<path fill="none" stroke="#999999" stroke-width="2" d="M51,-83.6501C51,-73.9808 51,-62.1502 51,-51.4157"/>
<polygon fill="#999999" stroke="#999999" stroke-width="2" points="51,-41.1671 55.5001,-51.1671 51.5,-46.1671 51.5001,-51.1671 51.0001,-51.1671 50.5001,-51.1671 50.5,-46.1671 46.5001,-51.1672 51,-41.1671 51,-41.1671"/>
</g>
<!-- jdk.xml.dom -->
<g id="node3" class="node"><title>jdk.xml.dom</title>
<text text-anchor="middle" x="51" y="-185.4" font-family="DejaVuSans" font-size="12.00" fill="#437291">jdk.xml.dom</text>
</g>
<!-- jdk.xml.dom&#45;&gt;java.xml -->
<g id="edge2" class="edge"><title>jdk.xml.dom&#45;&gt;java.xml</title>
<path fill="none" stroke="#999999" stroke-width="2" d="M51,-167.65C51,-157.981 51,-146.15 51,-135.416"/>
<polygon fill="#999999" stroke="#999999" stroke-width="2" points="51,-125.167 55.5001,-135.167 51.5,-130.167 51.5001,-135.167 51.0001,-135.167 50.5001,-135.167 50.5,-130.167 46.5001,-135.167 51,-125.167 51,-125.167"/>
</g>
</g>
</svg>
