<?xml version="1.0" encoding="UTF-8" standalone="no"?>
<!DOCTYPE svg PUBLIC "-//W3C//DTD SVG 1.1//EN"
 "http://www.w3.org/Graphics/SVG/1.1/DTD/svg11.dtd">
<!-- Generated by graphviz version 2.38.0 (20140413.2041)
 -->
<!-- Title: jdk.compiler Pages: 1 -->
<svg width="118pt" height="217pt"
 viewBox="0.00 0.00 118.00 217.00" xmlns="http://www.w3.org/2000/svg" xmlns:xlink="http://www.w3.org/1999/xlink">
<g id="graph0" class="graph" transform="scale(1 1) rotate(0) translate(4 213)">
<title>jdk.compiler</title>
<polygon fill="white" stroke="none" points="-4,4 -4,-213 114,-213 114,4 -4,4"/>
<!-- java.compiler -->
<g id="node1" class="node"><title>java.compiler</title>
<text text-anchor="middle" x="55" y="-101.4" font-family="DejaVuSans" font-size="12.00" fill="#e76f00">java.compiler</text>
</g>
<!-- java.base -->
<g id="node2" class="node"><title>java.base</title>
<text text-anchor="middle" x="55" y="-17.4" font-family="DejaVuSans" font-size="12.00" fill="#e76f00">java.base</text>
</g>
<!-- java.compiler&#45;&gt;java.base -->
<g id="edge1" class="edge"><title>java.compiler&#45;&gt;java.base</title>
<path fill="none" stroke="#999999" stroke-width="2" d="M55,-83.6501C55,-73.9808 55,-62.1502 55,-51.4157"/>
<polygon fill="#999999" stroke="#999999" stroke-width="2" points="55,-41.1671 59.5001,-51.1671 55.5,-46.1671 55.5001,-51.1671 55.0001,-51.1671 54.5001,-51.1671 54.5,-46.1671 50.5001,-51.1672 55,-41.1671 55,-41.1671"/>
</g>
<!-- jdk.compiler -->
<g id="node3" class="node"><title>jdk.compiler</title>
<text text-anchor="middle" x="55" y="-185.4" font-family="DejaVuSans" font-size="12.00" fill="#437291">jdk.compiler</text>
</g>
<!-- jdk.compiler&#45;&gt;java.compiler -->
<g id="edge2" class="edge"><title>jdk.compiler&#45;&gt;java.compiler</title>
<path fill="none" stroke="#999999" stroke-width="2" d="M55,-167.65C55,-157.981 55,-146.15 55,-135.416"/>
<polygon fill="#999999" stroke="#999999" stroke-width="2" points="55,-125.167 59.5001,-135.167 55.5,-130.167 55.5001,-135.167 55.0001,-135.167 54.5001,-135.167 54.5,-130.167 50.5001,-135.167 55,-125.167 55,-125.167"/>
</g>
</g>
</svg>
