<?xml version="1.0" encoding="UTF-8" standalone="no"?>
<!DOCTYPE svg PUBLIC "-//W3C//DTD SVG 1.1//EN"
 "http://www.w3.org/Graphics/SVG/1.1/DTD/svg11.dtd">
<!-- Generated by graphviz version 2.38.0 (20140413.2041)
 -->
<!-- Title: jdk.security.jgss Pages: 1 -->
<svg width="137pt" height="217pt"
 viewBox="0.00 0.00 137.00 217.00" xmlns="http://www.w3.org/2000/svg" xmlns:xlink="http://www.w3.org/1999/xlink">
<g id="graph0" class="graph" transform="scale(1 1) rotate(0) translate(4 213)">
<title>jdk.security.jgss</title>
<polygon fill="white" stroke="none" points="-4,4 -4,-213 133,-213 133,4 -4,4"/>
<!-- java.base -->
<g id="node1" class="node"><title>java.base</title>
<text text-anchor="middle" x="64.5" y="-17.4" font-family="DejaVuSans" font-size="12.00" fill="#e76f00">java.base</text>
</g>
<!-- java.security.jgss -->
<g id="node2" class="node"><title>java.security.jgss</title>
<text text-anchor="middle" x="64.5" y="-101.4" font-family="DejaVuSans" font-size="12.00" fill="#e76f00">java.security.jgss</text>
</g>
<!-- java.security.jgss&#45;&gt;java.base -->
<g id="edge1" class="edge"><title>java.security.jgss&#45;&gt;java.base</title>
<path fill="none" stroke="#999999" stroke-width="2" d="M64.5,-83.6501C64.5,-73.9808 64.5,-62.1502 64.5,-51.4157"/>
<polygon fill="#999999" stroke="#999999" stroke-width="2" points="64.5,-41.1671 69.0001,-51.1671 65,-46.1671 65.0001,-51.1671 64.5001,-51.1671 64.0001,-51.1671 64,-46.1671 60.0001,-51.1672 64.5,-41.1671 64.5,-41.1671"/>
</g>
<!-- jdk.security.jgss -->
<g id="node3" class="node"><title>jdk.security.jgss</title>
<text text-anchor="middle" x="64.5" y="-185.4" font-family="DejaVuSans" font-size="12.00" fill="#437291">jdk.security.jgss</text>
</g>
<!-- jdk.security.jgss&#45;&gt;java.security.jgss -->
<g id="edge2" class="edge"><title>jdk.security.jgss&#45;&gt;java.security.jgss</title>
<path fill="none" stroke="#999999" stroke-width="2" d="M64.5,-167.65C64.5,-157.981 64.5,-146.15 64.5,-135.416"/>
<polygon fill="#999999" stroke="#999999" stroke-width="2" points="64.5,-125.167 69.0001,-135.167 65,-130.167 65.0001,-135.167 64.5001,-135.167 64.0001,-135.167 64,-130.167 60.0001,-135.167 64.5,-125.167 64.5,-125.167"/>
</g>
</g>
</svg>
