<?xml version="1.0" encoding="UTF-8" standalone="no"?>
<!DOCTYPE svg PUBLIC "-//W3C//DTD SVG 1.1//EN"
 "http://www.w3.org/Graphics/SVG/1.1/DTD/svg11.dtd">
<!-- Generated by graphviz version 2.38.0 (20140413.2041)
 -->
<!-- Title: java.xml.crypto Pages: 1 -->
<svg width="129pt" height="217pt"
 viewBox="0.00 0.00 129.00 217.00" xmlns="http://www.w3.org/2000/svg" xmlns:xlink="http://www.w3.org/1999/xlink">
<g id="graph0" class="graph" transform="scale(1 1) rotate(0) translate(4 213)">
<title>java.xml.crypto</title>
<polygon fill="white" stroke="none" points="-4,4 -4,-213 125,-213 125,4 -4,4"/>
<!-- java.xml -->
<g id="node1" class="node"><title>java.xml</title>
<text text-anchor="middle" x="60.5" y="-101.4" font-family="DejaVuSans" font-size="12.00" fill="#e76f00">java.xml</text>
</g>
<!-- java.base -->
<g id="node2" class="node"><title>java.base</title>
<text text-anchor="middle" x="60.5" y="-17.4" font-family="DejaVuSans" font-size="12.00" fill="#e76f00">java.base</text>
</g>
<!-- java.xml&#45;&gt;java.base -->
<g id="edge1" class="edge"><title>java.xml&#45;&gt;java.base</title>
<path fill="none" stroke="#999999" stroke-width="2" d="M60.5,-83.6501C60.5,-73.9808 60.5,-62.1502 60.5,-51.4157"/>
<polygon fill="#999999" stroke="#999999" stroke-width="2" points="60.5,-41.1671 65.0001,-51.1671 61,-46.1671 61.0001,-51.1671 60.5001,-51.1671 60.0001,-51.1671 60,-46.1671 56.0001,-51.1672 60.5,-41.1671 60.5,-41.1671"/>
</g>
<!-- java.xml.crypto -->
<g id="node3" class="node"><title>java.xml.crypto</title>
<text text-anchor="middle" x="60.5" y="-185.4" font-family="DejaVuSans" font-size="12.00" fill="#e76f00">java.xml.crypto</text>
</g>
<!-- java.xml.crypto&#45;&gt;java.xml -->
<g id="edge2" class="edge"><title>java.xml.crypto&#45;&gt;java.xml</title>
<path fill="none" stroke="#999999" stroke-width="2" d="M60.5,-167.65C60.5,-157.981 60.5,-146.15 60.5,-135.416"/>
<polygon fill="#999999" stroke="#999999" stroke-width="2" points="60.5,-125.167 65.0001,-135.167 61,-130.167 61.0001,-135.167 60.5001,-135.167 60.0001,-135.167 60,-130.167 56.0001,-135.167 60.5,-125.167 60.5,-125.167"/>
</g>
</g>
</svg>
