<?xml version="1.0" encoding="UTF-8" standalone="no"?>
<!DOCTYPE svg PUBLIC "-//W3C//DTD SVG 1.1//EN"
 "http://www.w3.org/Graphics/SVG/1.1/DTD/svg11.dtd">
<!-- Generated by graphviz version 2.38.0 (20140413.2041)
 -->
<!-- Title: jdk.management.jfr Pages: 1 -->
<svg width="287pt" height="217pt"
 viewBox="0.00 0.00 286.50 217.00" xmlns="http://www.w3.org/2000/svg" xmlns:xlink="http://www.w3.org/1999/xlink">
<g id="graph0" class="graph" transform="scale(1 1) rotate(0) translate(4 213)">
<title>jdk.management.jfr</title>
<polygon fill="white" stroke="none" points="-4,4 -4,-213 282.5,-213 282.5,4 -4,4"/>
<!-- java.management -->
<g id="node1" class="node"><title>java.management</title>
<text text-anchor="middle" x="69" y="-101.4" font-family="DejaVuSans" font-size="12.00" fill="#e76f00">java.management</text>
</g>
<!-- java.base -->
<g id="node2" class="node"><title>java.base</title>
<text text-anchor="middle" x="69" y="-17.4" font-family="DejaVuSans" font-size="12.00" fill="#e76f00">java.base</text>
</g>
<!-- java.management&#45;&gt;java.base -->
<g id="edge1" class="edge"><title>java.management&#45;&gt;java.base</title>
<path fill="none" stroke="#999999" stroke-width="2" d="M69,-83.6501C69,-73.9808 69,-62.1502 69,-51.4157"/>
<polygon fill="#999999" stroke="#999999" stroke-width="2" points="69,-41.1671 73.5001,-51.1671 69.5,-46.1671 69.5001,-51.1671 69.0001,-51.1671 68.5001,-51.1671 68.5,-46.1671 64.5001,-51.1672 69,-41.1671 69,-41.1671"/>
</g>
<!-- jdk.jfr -->
<g id="node3" class="node"><title>jdk.jfr</title>
<text text-anchor="middle" x="205" y="-101.4" font-family="DejaVuSans" font-size="12.00" fill="#437291">jdk.jfr</text>
</g>
<!-- jdk.jfr&#45;&gt;java.base -->
<g id="edge2" class="edge"><title>jdk.jfr&#45;&gt;java.base</title>
<path fill="none" stroke="#999999" stroke-width="2" d="M173.799,-84.6875C154.945,-73.3195 130.689,-58.6949 110.262,-46.3788"/>
<polygon fill="#999999" stroke="#999999" stroke-width="2" points="101.475,-41.0808 112.363,-42.3906 106.016,-43.2344 110.297,-45.8161 110.039,-46.2443 109.781,-46.6725 105.499,-44.0907 107.716,-50.098 101.475,-41.0808 101.475,-41.0808"/>
</g>
<!-- jdk.management.jfr -->
<g id="node4" class="node"><title>jdk.management.jfr</title>
<text text-anchor="middle" x="205" y="-185.4" font-family="DejaVuSans" font-size="12.00" fill="#437291">jdk.management.jfr</text>
</g>
<!-- jdk.management.jfr&#45;&gt;java.management -->
<g id="edge3" class="edge"><title>jdk.management.jfr&#45;&gt;java.management</title>
<path fill="none" stroke="#999999" stroke-width="2" d="M172.425,-167.859C153.805,-156.633 130.27,-142.442 110.356,-130.435"/>
<polygon fill="#999999" stroke="#999999" stroke-width="2" points="101.781,-125.265 112.668,-126.575 106.321,-127.419 110.603,-130 110.345,-130.428 110.087,-130.857 105.805,-128.275 108.021,-134.282 101.781,-125.265 101.781,-125.265"/>
</g>
<!-- jdk.management.jfr&#45;&gt;jdk.jfr -->
<g id="edge4" class="edge"><title>jdk.management.jfr&#45;&gt;jdk.jfr</title>
<path fill="none" stroke="#999999" stroke-width="2" d="M205,-167.65C205,-157.981 205,-146.15 205,-135.416"/>
<polygon fill="#999999" stroke="#999999" stroke-width="2" points="205,-125.167 209.5,-135.167 205.5,-130.167 205.5,-135.167 205,-135.167 204.5,-135.167 204.5,-130.167 200.5,-135.167 205,-125.167 205,-125.167"/>
</g>
</g>
</svg>
